<?xml version="1.0" standalone="no"?>
<!DOCTYPE svg PUBLIC "-//W3C//DTD SVG 20010904//EN"
 "http://www.w3.org/TR/2001/REC-SVG-20010904/DTD/svg10.dtd">
<svg version="1.0" xmlns="http://www.w3.org/2000/svg"
 width="720.000000pt" height="720.000000pt" viewBox="0 0 720.000000 720.000000"
 preserveAspectRatio="xMidYMid meet">
<metadata>
Created by potrace 1.11, written by Peter Selinger 2001-2013
</metadata>
<g transform="translate(0.000000,720.000000) scale(0.100000,-0.100000)"
fill="#000000" stroke="none">
<path d="M1068 6640 c-38 -23 -21 -62 115 -271 74 -112 214 -334 312 -494 215
-350 260 -417 435 -655 75 -102 169 -231 208 -287 167 -237 566 -761 816
-1072 147 -183 265 -335 263 -338 -3 -2 -67 -11 -143 -18 -194 -20 -259 -35
-501 -114 -224 -74 -377 -136 -508 -207 -98 -52 -134 -87 -119 -112 28 -45
170 -81 419 -108 275 -29 828 7 1232 81 l82 15 93 -62 c51 -34 126 -89 167
-122 66 -54 167 -129 676 -504 408 -301 1007 -674 1795 -1119 257 -145 301
-167 393 -192 104 -28 127 -28 127 3 0 32 -14 42 -300 222 -760 476 -1430 960
-2331 1685 -107 86 -202 165 -212 177 -18 20 -18 20 0 25 29 9 271 56 343 66
128 20 1212 111 1628 137 253 16 265 16 297 -2 31 -17 35 -17 52 -2 25 23 56
34 221 78 79 21 145 40 148 43 2 2 26 99 51 216 26 116 51 211 56 211 5 0 25
-14 45 -31 34 -30 38 -31 104 -27 38 3 72 8 75 12 4 4 -42 56 -101 115 l-109
109 8 54 c13 94 12 103 -10 101 -11 -1 -46 -5 -77 -9 l-57 -6 -58 54 c-53 50
-263 229 -318 270 -12 10 -31 19 -41 20 -35 4 -114 -14 -114 -26 0 -7 20 -39
45 -71 190 -254 233 -320 222 -337 -94 -139 -432 -629 -445 -645 -17 -21 -23
-22 -432 -32 -228 -6 -559 -17 -735 -24 -176 -6 -426 -12 -555 -12 -212 0
-253 3 -424 30 l-189 30 -126 150 c-69 83 -225 267 -346 410 -321 377 -514
609 -656 785 -227 281 -869 1111 -1257 1627 -50 67 -107 134 -127 149 -39 29
-109 41 -137 24z"/>
</g>
</svg>
